<svg xmlns="http://www.w3.org/2000/svg" width="302.735" height="127.076" viewBox="0 0 302.735 127.076">
  <g id="Example-1" transform="translate(0.188 -3.531)">
    <g id="Group_2566" data-name="Group 2566" transform="translate(30.5 25.5)">
      <path id="Path_3408" data-name="Path 3408" d="M2126.759,479.878,2111.217,527.4l-44.9,22.009a50,50,0,1,0,60.441-69.534Z" transform="translate(-2061.217 -477.403)" fill="#5aaff1"/>
      <path id="Path_3409" data-name="Path 3409" d="M2133.667,526.165l15.541-47.525a49.933,49.933,0,0,0-15.541-2.475Z" transform="translate(-2083.667 -476.165)" fill="#59ce61"/>
      <path id="Path_3410" data-name="Path 3410" d="M2108.667,476.165a50.006,50.006,0,0,0-44.9,72.009l44.9-22.009Z" transform="translate(-2058.667 -476.165)" fill="#ffc57a"/>
    </g>
    <g id="Group_2567" data-name="Group 2567" transform="translate(193 35)">
      <path id="Path_3885" data-name="Path 3885" d="M4.7.108A4.141,4.141,0,0,0,8.076-1.608L6.8-2.544a2.415,2.415,0,0,1-2.052,1.08A2.583,2.583,0,0,1,2.172-4.14,2.573,2.573,0,0,1,4.764-6.792,2.428,2.428,0,0,1,6.8-5.724l1.272-.924A4.109,4.109,0,0,0,4.7-8.364,4.2,4.2,0,0,0,.5-4.14,4.207,4.207,0,0,0,4.7.108Zm9.372,0a4.215,4.215,0,0,0,4.212-4.236,4.218,4.218,0,0,0-4.212-4.248,4.2,4.2,0,0,0-4.2,4.248A4.2,4.2,0,0,0,14.076.108Zm0-1.56a2.545,2.545,0,0,1-2.532-2.676A2.545,2.545,0,0,1,14.076-6.8a2.552,2.552,0,0,1,2.532,2.676A2.552,2.552,0,0,1,14.076-1.452ZM30.36,0,29.352-8.268h-1.44L25.38-2.844,22.824-8.268H21.408L20.388,0h1.7l.6-5.124,2.04,4.188H26.04l2.016-4.188L28.656,0Zm6.012-8.268H33V0h1.668V-2.892h1.7a2.532,2.532,0,0,0,2.7-2.676A2.55,2.55,0,0,0,36.372-8.268Zm-.084,3.912h-1.62V-6.792h1.644a1.088,1.088,0,0,1,1.08,1.224A1.089,1.089,0,0,1,36.288-4.356ZM46.152,0H47.9L44.832-8.268h-1.8L39.948,0h1.776l.66-1.98h3.1ZM42.876-3.432,43.92-6.54l1.056,3.108ZM54.42-8.268v5.124L51.468-8.268H49.92V0h1.668V-5.184l3,5.184h1.5V-8.268Zm9.828,0L62.172-5.124l-2.04-3.144H58.14l3.2,4.512V0h1.668V-3.732l3.216-4.536ZM76.632,0h1.752L75.312-8.268h-1.8L70.428,0H72.2l.66-1.98h3.1ZM73.356-3.432,74.4-6.54l1.056,3.108Z" transform="translate(30 15)" fill="#fff" stroke="rgba(0,0,0,0)" stroke-width="1"/>
      <path id="Path_3884" data-name="Path 3884" d="M4.7.108A4.141,4.141,0,0,0,8.076-1.608L6.8-2.544a2.415,2.415,0,0,1-2.052,1.08A2.583,2.583,0,0,1,2.172-4.14,2.573,2.573,0,0,1,4.764-6.792,2.428,2.428,0,0,1,6.8-5.724l1.272-.924A4.109,4.109,0,0,0,4.7-8.364,4.2,4.2,0,0,0,.5-4.14,4.207,4.207,0,0,0,4.7.108Zm9.372,0a4.215,4.215,0,0,0,4.212-4.236,4.218,4.218,0,0,0-4.212-4.248,4.2,4.2,0,0,0-4.2,4.248A4.2,4.2,0,0,0,14.076.108Zm0-1.56a2.545,2.545,0,0,1-2.532-2.676A2.545,2.545,0,0,1,14.076-6.8a2.552,2.552,0,0,1,2.532,2.676A2.552,2.552,0,0,1,14.076-1.452ZM30.36,0,29.352-8.268h-1.44L25.38-2.844,22.824-8.268H21.408L20.388,0h1.7l.6-5.124,2.04,4.188H26.04l2.016-4.188L28.656,0Zm6.012-8.268H33V0h1.668V-2.892h1.7a2.532,2.532,0,0,0,2.7-2.676A2.55,2.55,0,0,0,36.372-8.268Zm-.084,3.912h-1.62V-6.792h1.644a1.088,1.088,0,0,1,1.08,1.224A1.089,1.089,0,0,1,36.288-4.356ZM46.152,0H47.9L44.832-8.268h-1.8L39.948,0h1.776l.66-1.98h3.1ZM42.876-3.432,43.92-6.54l1.056,3.108ZM54.42-8.268v5.124L51.468-8.268H49.92V0h1.668V-5.184l3,5.184h1.5V-8.268Zm9.828,0L62.172-5.124l-2.04-3.144H58.14l3.2,4.512V0h1.668V-3.732l3.216-4.536Zm12.1,3.852a1.68,1.68,0,0,0,1.14-1.716A2.173,2.173,0,0,0,75.06-8.268H71.784V0h3.528a2.359,2.359,0,0,0,2.6-2.364A1.959,1.959,0,0,0,76.344-4.416Zm-1.38-2.376a.807.807,0,0,1,.852.9.818.818,0,0,1-.852.912H73.452V-6.792Zm.108,5.316h-1.62V-3.588H75.1a1.043,1.043,0,0,1,1.14,1.056A1.052,1.052,0,0,1,75.072-1.476Z" transform="translate(30 40)" fill="#fff" stroke="rgba(0,0,0,0)" stroke-width="1"/>
      <path id="Path_3883" data-name="Path 3883" d="M4.7.108A4.141,4.141,0,0,0,8.076-1.608L6.8-2.544a2.415,2.415,0,0,1-2.052,1.08A2.583,2.583,0,0,1,2.172-4.14,2.573,2.573,0,0,1,4.764-6.792,2.428,2.428,0,0,1,6.8-5.724l1.272-.924A4.109,4.109,0,0,0,4.7-8.364,4.2,4.2,0,0,0,.5-4.14,4.207,4.207,0,0,0,4.7.108Zm9.372,0a4.215,4.215,0,0,0,4.212-4.236,4.218,4.218,0,0,0-4.212-4.248,4.2,4.2,0,0,0-4.2,4.248A4.2,4.2,0,0,0,14.076.108Zm0-1.56a2.545,2.545,0,0,1-2.532-2.676A2.545,2.545,0,0,1,14.076-6.8a2.552,2.552,0,0,1,2.532,2.676A2.552,2.552,0,0,1,14.076-1.452ZM30.36,0,29.352-8.268h-1.44L25.38-2.844,22.824-8.268H21.408L20.388,0h1.7l.6-5.124,2.04,4.188H26.04l2.016-4.188L28.656,0Zm6.012-8.268H33V0h1.668V-2.892h1.7a2.532,2.532,0,0,0,2.7-2.676A2.55,2.55,0,0,0,36.372-8.268Zm-.084,3.912h-1.62V-6.792h1.644a1.088,1.088,0,0,1,1.08,1.224A1.089,1.089,0,0,1,36.288-4.356ZM46.152,0H47.9L44.832-8.268h-1.8L39.948,0h1.776l.66-1.98h3.1ZM42.876-3.432,43.92-6.54l1.056,3.108ZM54.42-8.268v5.124L51.468-8.268H49.92V0h1.668V-5.184l3,5.184h1.5V-8.268Zm9.828,0L62.172-5.124l-2.04-3.144H58.14l3.2,4.512V0h1.668V-3.732l3.216-4.536ZM75.48.108a4.141,4.141,0,0,0,3.372-1.716L77.58-2.544a2.415,2.415,0,0,1-2.052,1.08,2.583,2.583,0,0,1-2.58-2.676A2.573,2.573,0,0,1,75.54-6.792a2.428,2.428,0,0,1,2.04,1.068l1.272-.924A4.109,4.109,0,0,0,75.48-8.364a4.2,4.2,0,0,0-4.2,4.224A4.207,4.207,0,0,0,75.48.108Z" transform="translate(30 65)" fill="#fff" stroke="rgba(0,0,0,0)" stroke-width="1"/>
      <circle id="Ellipse_204" data-name="Ellipse 204" cx="10" cy="10" r="10" fill="#59ce61"/>
      <path id="Path_3466" data-name="Path 3466" d="M10,0A10,10,0,1,1,0,10,10,10,0,0,1,10,0Z" transform="translate(0 25)" fill="#5aaff1"/>
      <circle id="Ellipse_206" data-name="Ellipse 206" cx="10" cy="10" r="10" transform="translate(0 50)" fill="#ffc57a"/>
    </g>
    <path id="Path_3888" data-name="Path 3888" d="M3.06-1.476,4.908-3.6a3.018,3.018,0,0,0,.864-1.992A2.343,2.343,0,0,0,3.18-7.968,2.53,2.53,0,0,0,.5-5.6l1.428.24A1.164,1.164,0,0,1,3.12-6.5a.94.94,0,0,1,1.044.9,2.068,2.068,0,0,1-.54,1.068L.552-.852V0H5.844V-1.476ZM9.108.108a.987.987,0,0,0,1.02-.972.984.984,0,0,0-1.02-.96.971.971,0,0,0-1,.96A.973.973,0,0,0,9.108.108Zm6.468-5.16a2.263,2.263,0,0,0-1.7.684c.048-1.248.744-2.136,1.74-2.136a1.325,1.325,0,0,1,1.236.8l1.272-.708a2.678,2.678,0,0,0-2.52-1.56c-2.208,0-3.324,1.98-3.324,4.308,0,2.352,1.2,3.768,3.036,3.768a2.661,2.661,0,0,0,2.9-2.64A2.519,2.519,0,0,0,15.576-5.052Zm-.264,3.7a1.237,1.237,0,0,1-1.32-1.212A1.25,1.25,0,0,1,15.36-3.72a1.188,1.188,0,0,1,1.272,1.176A1.212,1.212,0,0,1,15.312-1.356Zm9.7-3.06a1.679,1.679,0,0,0,.876-1.536,2.187,2.187,0,0,0-2.46-2.016,2.187,2.187,0,0,0-2.46,2.016,1.679,1.679,0,0,0,.876,1.536,2.127,2.127,0,0,0-1.476,2.064c0,1.476,1.356,2.46,3.06,2.46s3.048-.984,3.048-2.46A2.117,2.117,0,0,0,25.008-4.416Zm-1.584-2.2a.883.883,0,0,1,.936.84.874.874,0,0,1-.936.828.874.874,0,0,1-.936-.828A.883.883,0,0,1,23.424-6.612Zm0,5.316A1.293,1.293,0,0,1,22-2.508,1.3,1.3,0,0,1,23.424-3.72,1.293,1.293,0,0,1,24.852-2.5,1.285,1.285,0,0,1,23.424-1.3Z" transform="translate(78 12)" fill="#fff" stroke="rgba(0,0,0,0)" stroke-width="1"/>
    <path id="Path_3887" data-name="Path 3887" d="M3.576-7.968.312-6.612v1.476l1.812-.7V0H3.708V-7.968Zm7.356,3.552a1.679,1.679,0,0,0,.876-1.536,2.187,2.187,0,0,0-2.46-2.016,2.187,2.187,0,0,0-2.46,2.016,1.679,1.679,0,0,0,.876,1.536A2.127,2.127,0,0,0,6.288-2.352c0,1.476,1.356,2.46,3.06,2.46S12.4-.876,12.4-2.352A2.117,2.117,0,0,0,10.932-4.416Zm-1.584-2.2a.883.883,0,0,1,.936.84.874.874,0,0,1-.936.828.874.874,0,0,1-.936-.828A.883.883,0,0,1,9.348-6.612Zm0,5.316A1.293,1.293,0,0,1,7.92-2.508,1.3,1.3,0,0,1,9.348-3.72,1.293,1.293,0,0,1,10.776-2.5,1.285,1.285,0,0,1,9.348-1.3Zm6.2,1.4a.987.987,0,0,0,1.02-.972.984.984,0,0,0-1.02-.96.971.971,0,0,0-1,.96A.973.973,0,0,0,15.552.108ZM21.7-7.968a2.668,2.668,0,0,0-2.9,2.64A2.532,2.532,0,0,0,21.444-2.8a2.337,2.337,0,0,0,1.7-.66c-.06,1.224-.756,2.1-1.74,2.1a1.349,1.349,0,0,1-1.248-.792l-1.272.7A2.683,2.683,0,0,0,21.42.108c2.208,0,3.324-1.98,3.324-4.308C24.744-6.432,23.532-7.968,21.7-7.968Zm-.036,3.84a1.2,1.2,0,0,1-1.272-1.188A1.2,1.2,0,0,1,21.708-6.5a1.226,1.226,0,0,1,1.308,1.212A1.233,1.233,0,0,1,21.66-4.128Z" transform="translate(0 47)" fill="#fff" stroke="rgba(0,0,0,0)" stroke-width="1"/>
    <path id="Path_3886" data-name="Path 3886" d="M6.708-2.9h-1.2V-7.86H4.572L.12-1.968V-1.5H3.912V0h1.6V-1.5h1.2Zm-4.344,0L3.912-4.98V-2.9Zm9.768-2.148a2.263,2.263,0,0,0-1.7.684c.048-1.248.744-2.136,1.74-2.136a1.325,1.325,0,0,1,1.236.8l1.272-.708a2.678,2.678,0,0,0-2.52-1.56c-2.208,0-3.324,1.98-3.324,4.308,0,2.352,1.2,3.768,3.036,3.768a2.661,2.661,0,0,0,2.9-2.64A2.519,2.519,0,0,0,12.132-5.052Zm-.264,3.7a1.237,1.237,0,0,1-1.32-1.212A1.25,1.25,0,0,1,11.916-3.72a1.188,1.188,0,0,1,1.272,1.176A1.212,1.212,0,0,1,11.868-1.356ZM17.988.108a.987.987,0,0,0,1.02-.972.984.984,0,0,0-1.02-.96.971.971,0,0,0-1,.96A.973.973,0,0,0,17.988.108Zm5.8-8.076L20.52-6.612v1.476l1.812-.7V0h1.584V-7.968Z" transform="translate(118 130)" fill="#fff" stroke="rgba(0,0,0,0)" stroke-width="1"/>
  </g>
</svg>
