<svg id="b667d4cf-26f2-4351-86ec-0ea72d0225d6" data-name="Layer 1" xmlns="http://www.w3.org/2000/svg" width="35.28mm" height="35.28mm" viewBox="0 0 100 100">
  <defs>
    <style>
      .bbf5054d-0518-4356-8059-c37f1d2f272c {
        fill: none;
      }

      .bb7e5b42-c632-472c-8f7a-5ef08cca926a {
        opacity: 0.3;
      }

      .a3c65f6c-3492-40a2-abd5-6c76b696d38c {
        fill: #fff;
      }
    </style>
  </defs>
  <title>0-2-Question-D</title>
  <rect class="bbf5054d-0518-4356-8059-c37f1d2f272c" width="100" height="100"/>
  <g class="bb7e5b42-c632-472c-8f7a-5ef08cca926a">
    <path class="a3c65f6c-3492-40a2-abd5-6c76b696d38c" d="M44.7,55.46c-.16-4.68,2.08-6.4,5.14-7.54l1.77-.62c2.34-.89,4.31-2.7,4.31-5.51,0-3.79-2.44-5.87-5.66-5.87a6.42,6.42,0,0,0-6.39,6.49H39.56a10.58,10.58,0,0,1,10.7-10.75c5.61,0,10.18,3.89,10.18,10.13a10.26,10.26,0,0,1-7.53,9.77c-2.18.67-3.74,1.4-3.74,3.9l-.05,2.07H44.7Zm-1.14,9.71a3.33,3.33,0,1,1,3.32,3.17A3.21,3.21,0,0,1,43.56,65.17Z"/>
  </g>
</svg>
